<svg viewBox="0 0 1024 1176.463" xmlns="http://www.w3.org/2000/svg"><path d="M654.88 188.053c.01-12.13 9.845-21.957 21.976-21.957 12.138 0 21.977 9.84 21.977 21.977s-9.84 21.977-21.977 21.977c-12.13 0-21.966-9.828-21.977-21.956zM512.2 32.138L230.16 314.176c-72.224 71.83-116.923 171.27-116.923 281.154 0 218.975 177.514 396.49 396.49 396.49 109.882 0 209.325-44.7 281.136-116.907l.018-.018c73.99-71.336 119.942-171.32 119.942-282.036 0-109.05-44.576-207.685-116.5-278.682l-.042-.04-69.74 69.7c53.923 53.922 87.274 128.415 87.274 210.698 0 164.566-133.407 297.974-297.974 297.974S215.866 759.103 215.866 594.536c0-82.283 33.352-156.777 87.274-210.7L488.966 198.05l23.274-26.592z"/></svg>